<?xml version="1.0" encoding="UTF-8"?>
<svg width="58px" height="11px" viewBox="0 0 58 11" version="1.1" xmlns="http://www.w3.org/2000/svg" xmlns:xlink="http://www.w3.org/1999/xlink">
    <!-- Generator: Sketch 49.1 (51147) - http://www.bohemiancoding.com/sketch -->
    <title>behance-4</title>
    <desc>Created with Sketch.</desc>
    <defs></defs>
    <g id="UX-Taha" stroke="none" stroke-width="1" fill="none" fill-rule="evenodd">
        <g id="UX-Taha-Copy" transform="translate(-30.000000, -33.000000)" fill="#FFFFFF" fill-rule="nonzero">
            <g id="behance-4" transform="translate(30.000000, 33.000000)">
                <path d="M4.98440341,0 C5.47903887,0 5.93562544,0.0392579505 6.35416313,0.155477032 C6.77270082,0.233215548 7.11514075,0.38869258 7.4195318,0.583038869 C7.72392285,0.777385159 7.95221613,1.04946996 8.10441166,1.39968198 C8.25660718,1.74911661 8.33270494,2.17706714 8.33270494,2.64349823 C8.33270494,3.18727915 8.2185583,3.65409894 7.95221613,4.00392226 C7.72392285,4.35335689 7.34343404,4.66431095 6.88684746,4.8975265 C7.53367844,5.09187279 8.02831389,5.44130742 8.33270494,5.90812721 C8.63709599,6.3745583 8.8273404,6.95759717 8.8273404,7.61837456 C8.8273404,8.16215548 8.71319375,8.62897527 8.52294935,9.01766784 C8.33270494,9.40636042 8.02831389,9.75618375 7.68587396,9.98939929 C7.34343404,10.2230035 6.92489634,10.4173498 6.46830977,10.5335689 C6.0117232,10.649788 5.55513663,10.7279152 5.09855006,10.7279152 L0,10.7279152 L0,0 L4.98440341,0 Z M4.68001236,4.35335689 C5.09855006,4.35335689 5.44098999,4.23674912 5.70733215,4.04240283 C5.97367432,3.84805654 6.08782096,3.49823322 6.08782096,3.07067138 C6.08782096,2.83745583 6.04977208,2.60424028 5.97367432,2.44876325 C5.89757656,2.29328622 5.78342991,2.17667845 5.63123439,2.06007067 C5.47903887,1.98233216 5.32684334,1.90459364 5.13659894,1.86572438 C4.94635453,1.82685512 4.75611013,1.82685512 4.52781684,1.82685512 L2.32098174,1.82685512 L2.32098174,4.35335689 L4.68001236,4.35335689 Z M4.79415901,8.93992933 C5.02245229,8.93992933 5.25074558,8.90106007 5.44098999,8.86257951 C5.63123439,8.82332155 5.8214788,8.74558304 5.97367432,8.62897527 C6.12586984,8.51236749 6.24001649,8.39575972 6.35416313,8.20141343 C6.43026089,8.00706714 6.50635865,7.7734629 6.50635865,7.50176678 C6.50635865,6.95759717 6.35416313,6.56890459 6.04977208,6.2964311 C5.74538103,6.06321555 5.32684334,5.94699647 4.83220789,5.94699647 L2.32098174,5.94699647 L2.32098174,8.93992933 L4.79415901,8.93992933 Z M12.137593,8.90106007 C12.4419841,9.21201413 12.8985707,9.36749117 13.5073528,9.36749117 C13.9258905,9.36749117 14.3063793,9.25088339 14.6107703,9.0565371 C14.9151614,8.82293286 15.1054058,8.59010601 15.1815035,8.35650177 L17.0458987,8.35650177 C16.7415076,9.28936396 16.2849211,9.95053004 15.676139,10.3777032 C15.0673569,10.7663958 14.3444281,11 13.4693039,11 C12.8605218,11 12.3278374,10.8830035 11.833202,10.6886572 C11.3385665,10.494311 10.9580777,10.2226148 10.6156378,9.83392226 C10.2731979,9.48409894 10.0068557,9.0565371 9.85466018,8.55084806 C9.66441578,8.0455477 9.58831802,7.50176678 9.58831802,6.87946996 C9.58831802,6.2964311 9.66441578,5.75265018 9.85466018,5.24696113 C10.0449046,4.74166078 10.3112468,4.31448763 10.6536867,3.92579505 C10.9961266,3.57597173 11.4146643,3.26501767 11.8712509,3.07067138 C12.3658863,2.87632509 12.8605218,2.75971731 13.4693039,2.75971731 C14.1161349,2.75971731 14.6868681,2.87632509 15.1815035,3.14840989 C15.676139,3.4204947 16.0566278,3.73144876 16.3610188,4.19787986 C16.6654099,4.6254417 16.8937032,5.13035336 17.0458987,5.67491166 C17.1219965,6.21908127 17.1600453,6.76325088 17.1219965,7.38515901 L11.6049087,7.38515901 C11.6049087,8.00706714 11.833202,8.59010601 12.137593,8.90106007 Z M14.5346725,4.81978799 C14.2683304,4.54770318 13.8497927,4.39222615 13.3551572,4.39222615 C13.0127173,4.39222615 12.7463751,4.46957597 12.5180819,4.58657244 C12.2897886,4.70318021 12.137593,4.85826855 11.9853975,5.01413428 C11.833202,5.17 11.7571042,5.3639576 11.7190554,5.55830389 C11.6810065,5.75265018 11.6429576,5.90773852 11.6429576,6.06360424 L15.0673569,6.06360424 C14.9912591,5.48056537 14.8010147,5.09187279 14.5346725,4.81978799 Z M20.0898092,0 L20.0898092,4.04240283 L20.1278581,4.04240283 C20.3942002,3.57597173 20.7366402,3.26501767 21.1551778,3.07067138 C21.5737155,2.87632509 21.9542043,2.75971731 22.372742,2.75971731 C22.9434753,2.75971731 23.4000618,2.83745583 23.7425018,2.99293286 C24.0849417,3.14840989 24.3893327,3.38162544 24.5795771,3.65371025 C24.7698215,3.92579505 24.9220171,4.27561837 24.9981148,4.66431095 C25.0742126,5.05300353 25.1122615,5.48095406 25.1122615,5.98586572 L25.1122615,10.7667845 L23.019573,10.7667845 L23.019573,6.3745583 C23.019573,5.71378092 22.9054264,5.24734982 22.715182,4.93639576 C22.5249376,4.6254417 22.1824976,4.46996466 21.6878622,4.46996466 C21.117129,4.46996466 20.6985913,4.66431095 20.470298,4.97565371 C20.2039558,5.32508834 20.0898092,5.90812721 20.0898092,6.68551237 L20.0898092,10.7667845 L17.9971207,10.7667845 L17.9971207,0 L20.0898092,0 Z M26.6342167,4.12014134 C26.86251,3.77031802 27.1288522,3.53710247 27.4712921,3.30349823 C27.813732,3.10915194 28.1942208,2.9540636 28.6127585,2.8759364 C29.0312962,2.79819788 29.4494534,2.75932862 29.8683716,2.75932862 C30.2488604,2.75932862 30.6293492,2.79819788 31.0482674,2.83706714 C31.4287562,2.8759364 31.809245,2.99215548 32.1132556,3.1480212 C32.4556955,3.30310954 32.6839888,3.53671378 32.9126626,3.80879859 C33.1025265,4.08127208 33.2166731,4.46996466 33.2166731,4.93639576 L33.2166731,9.01766784 C33.2166731,9.36749117 33.254722,9.71731449 33.2927709,10.0286572 C33.3312003,10.3396113 33.4445859,10.6116961 33.5591131,10.7667845 L31.4283757,10.7667845 C31.3518975,10.6890459 31.3138486,10.5335689 31.2761802,10.4173498 C31.2381313,10.3003534 31.2381313,10.145265 31.2381313,10.0286572 C30.8956914,10.3780919 30.5152026,10.6116961 30.058616,10.7667845 C29.6020294,10.9222615 29.1454429,10.9611307 28.6888563,10.9611307 C28.3083675,10.9611307 28.0039764,10.9222615 27.6615365,10.8060424 C27.3571454,10.7283039 27.0908033,10.5724382 26.8244611,10.3780919 C26.5961678,10.1837456 26.4059234,9.95053004 26.2537279,9.63996466 C26.1395813,9.32862191 26.0634835,9.01766784 26.0634835,8.59010601 C26.0634835,8.16215548 26.1395813,7.7734629 26.2917768,7.50176678 C26.4439723,7.22968198 26.6342167,6.99646643 26.86251,6.80212014 C27.0908033,6.6470318 27.3951943,6.49116608 27.6995854,6.41342756 C28.0039764,6.33607774 28.3083675,6.25833922 28.6508074,6.21908127 L29.5639805,6.1024735 C29.8683716,6.06360424 30.1347138,6.02473498 30.363007,5.98586572 C30.5913003,5.90812721 30.7815447,5.83038869 30.9337403,5.71378092 C31.0859358,5.59717314 31.1239847,5.44169611 31.1239847,5.20848057 C31.1239847,4.97526502 31.0859358,4.78091873 31.009838,4.66431095 C30.9337403,4.54770318 30.8195936,4.43109541 30.705447,4.35335689 C30.5909198,4.27561837 30.4391048,4.23674912 30.2869093,4.19826855 C30.1347138,4.1590106 29.9444694,4.1590106 29.754225,4.1590106 C29.3356873,4.1590106 29.0312962,4.23674912 28.8030029,4.43109541 C28.5747096,4.6254417 28.4225141,4.93639576 28.3844652,5.32508834 L26.2917768,5.32508834 C26.2917768,4.85865724 26.4439723,4.43109541 26.6342167,4.12014134 Z M30.7811643,7.15194346 C30.6673981,7.19081272 30.5152026,7.22968198 30.3626266,7.26855124 C30.210431,7.30780919 30.0582355,7.30780919 29.8679911,7.34628975 C29.7161761,7.38515901 29.5259317,7.38515901 29.3733557,7.42402827 L28.9167691,7.54063604 C28.7645736,7.5795053 28.612378,7.65724382 28.5362803,7.73498233 C28.4221336,7.81272085 28.3460359,7.92932862 28.2699381,8.0459364 C28.156172,8.20141343 28.156172,8.35689046 28.156172,8.55123675 C28.156172,8.74558304 28.1942208,8.90106007 28.2703186,9.01766784 C28.3464164,9.13427562 28.4225141,9.25127208 28.5366608,9.32862191 C28.6508074,9.40636042 28.8030029,9.44561837 28.9551985,9.48409894 C29.107394,9.52257951 29.259209,9.5229682 29.4494534,9.5229682 C29.8683716,9.5229682 30.1723822,9.44561837 30.4006754,9.32862191 C30.6293492,9.17353357 30.7811643,9.01766784 30.8956914,8.82332155 C31.009838,8.62897527 31.0859358,8.43462898 31.0859358,8.24028269 C31.1239847,8.0459364 31.1239847,7.89084806 31.1239847,7.77385159 L31.1239847,6.95759717 C31.009838,7.03533569 30.8956914,7.1134629 30.7811643,7.15194346 Z M36.3751107,2.9540636 L36.3751107,4.04240283 L36.4131596,4.04240283 C36.6791213,3.57597173 37.0219417,3.26501767 37.4400989,3.07067138 C37.8590171,2.87632509 38.3156037,2.75971731 38.7337609,2.75971731 C39.3044941,2.75971731 39.7610807,2.83745583 40.1035206,2.99293286 C40.4840094,3.14840989 40.7507321,3.38162544 40.9409765,3.65371025 C41.1312209,3.92579505 41.2830359,4.27561837 41.3971825,4.66431095 C41.4732803,5.05300353 41.5117097,5.48095406 41.5117097,5.98586572 L41.5117097,10.7667845 L39.4190212,10.7667845 L39.4190212,6.3745583 C39.4190212,5.71378092 39.3044941,5.24734982 39.1142497,4.93639576 C38.9240053,4.6254417 38.5815653,4.43109541 38.048881,4.43109541 C37.4781478,4.43109541 37.0592296,4.66431095 36.7932679,5.01413428 C36.5269258,5.3639576 36.4127791,5.94699647 36.4127791,6.72438163 L36.4127791,10.8056537 L34.3200907,10.8056537 L34.3200907,2.9540636 L36.3751107,2.9540636 Z M46.1909611,4.35335689 C45.8489016,4.35335689 45.582179,4.43109541 45.3542662,4.58696113 C45.1259729,4.74204947 44.9357285,4.93639576 44.783533,5.20886926 C44.6313374,5.44208481 44.5552397,5.71416961 44.4787614,6.02512367 C44.4030441,6.33646643 44.4030441,6.60816254 44.4030441,6.9195053 C44.4030441,7.19120141 44.441093,7.50254417 44.4787614,7.77424028 C44.5552397,8.08558304 44.6309569,8.31840989 44.783533,8.55162544 C44.9357285,8.78522968 45.087924,8.97957597 45.3162173,9.13466431 C45.5445106,9.29014134 45.8104723,9.36826855 46.1529122,9.36826855 C46.6479281,9.36826855 47.0284169,9.21279152 47.3324275,8.94031802 C47.5991501,8.66862191 47.7893946,8.27992933 47.8274434,7.77424028 L49.8440341,7.77424028 C49.6922191,8.82371025 49.3117303,9.60109541 48.6641383,10.1456537 C48.0176878,10.6894346 47.1806125,10.9619081 46.1529122,10.9619081 C45.582179,10.9619081 45.0494946,10.8453004 44.5929081,10.6509541 C44.0978921,10.4566078 43.7174033,10.184523 43.3753439,9.83469965 C43.0332844,9.48487633 42.7661813,9.05731449 42.5759369,8.59088339 C42.3856925,8.08558304 42.3099752,7.57989399 42.3099752,6.99685512 C42.3099752,6.374947 42.3856925,5.83077739 42.5759369,5.32547703 C42.7661813,4.82017668 42.9948551,4.35374558 43.3369145,3.965053 C43.6793544,3.57636042 44.0978921,3.30427562 44.5548592,3.07106007 C45.0491141,2.87671378 45.5817985,2.76010601 46.1905806,2.76010601 C46.6475476,2.76010601 47.0660853,2.83784452 47.4842425,2.9544523 C47.9023997,3.07106007 48.283269,3.26540636 48.5876601,3.49823322 C48.9301,3.73183746 49.1964422,4.04240283 49.3866866,4.43109541 C49.576931,4.78091873 49.6914581,5.24734982 49.7291265,5.75265018 L47.6744869,5.75265018 C47.5995306,4.81978799 47.1045147,4.35335689 46.1909611,4.35335689 Z M11.186371,0.738515901 L15.4478457,0.738515901 L15.4478457,1.78798587 L11.186371,1.78798587 L11.186371,0.738515901 Z M53.0020913,8.90106007 C53.3068628,9.21201413 53.8011178,9.36749117 54.371851,9.36749117 C54.7907691,9.36749117 55.171258,9.25088339 55.4752685,9.0565371 C55.7800401,8.82293286 55.9702845,8.59010601 56.0460017,8.35650177 L57.8727285,8.35650177 C57.567957,9.28936396 57.1117509,9.95053004 56.5025883,10.3777032 C55.8934257,10.7663958 55.1708775,11 54.2957532,11 C53.6869711,11 53.1542868,10.8830035 52.6592708,10.6886572 C52.1909384,10.5102799 51.7728755,10.2167064 51.4420871,9.83392226 C51.0996472,9.48409894 50.833305,9.0565371 50.6811095,8.55084806 C50.4908651,8.0455477 50.4147673,7.50176678 50.4147673,6.87946996 C50.4147673,6.2964311 50.4908651,5.75265018 50.6811095,5.24696113 C50.8643775,4.75947612 51.1353908,4.31136373 51.480136,3.92579505 C51.8225759,3.57597173 52.2411136,3.26501767 52.6977002,3.07067138 C53.1923357,2.87632509 53.72502,2.75971731 54.2957532,2.75971731 C54.9422037,2.75971731 55.5129369,2.87632509 55.969904,3.14840989 C56.4641589,3.4204947 56.8446477,3.73144876 57.1494193,4.19787986 C57.4538103,4.6254417 57.6821036,5.13035336 57.8342991,5.67491166 C57.9861142,6.21869258 58.0245435,6.80173145 57.9861142,7.42402827 L52.4690264,7.42402827 C52.4690264,8.00706714 52.6977002,8.59010601 53.0020913,8.90106007 Z M55.4372196,4.81978799 C55.1708775,4.54770318 54.7519593,4.39222615 54.2577043,4.39222615 C53.9152644,4.39222615 53.6485417,4.46957597 53.4202485,4.58657244 C53.1919552,4.70318021 53.0017108,4.85826855 52.8879446,5.01413428 C52.7741785,5.17 52.6592708,5.3639576 52.6216024,5.55830389 C52.5839341,5.75265018 52.5458852,5.90773852 52.5458852,6.06360424 L55.9702845,6.06360424 C55.8557573,5.48056537 55.6655129,5.09187279 55.4372196,4.81978799 Z" id="Shape"></path>
            </g>
        </g>
    </g>
</svg>