<?xml version="1.0" encoding="UTF-8"?>
<svg width="53px" height="13px" viewBox="0 0 53 13" version="1.1" xmlns="http://www.w3.org/2000/svg" xmlns:xlink="http://www.w3.org/1999/xlink">
    <!-- Generator: Sketch 49.1 (51147) - http://www.bohemiancoding.com/sketch -->
    <title>dribbble-4</title>
    <desc>Created with Sketch.</desc>
    <defs></defs>
    <g id="UX-Taha" stroke="none" stroke-width="1" fill="none" fill-rule="evenodd">
        <g id="UX-Taha-Copy" transform="translate(-119.000000, -31.000000)" fill="#FFFFFF" fill-rule="nonzero">
            <g id="dribbble-4" transform="translate(119.000000, 31.000000)">
                <path d="M16.1933479,5.2305236 C16.7999488,5.2305236 17.2916476,4.73658746 17.2916476,4.12737876 C17.2916476,3.51806612 16.7999488,3.02423392 16.1933479,3.02423392 C15.5867469,3.02423392 15.0950481,3.51806612 15.0950481,4.12737876 C15.0950481,4.73658746 15.5867469,5.2305236 16.1933479,5.2305236 Z M52.4403446,8.99959315 C52.2732705,8.88161808 52.1442902,8.86207684 52.0372551,9.09116675 C50.1926084,13.1029427 47.0840372,11.1010046 47.392824,11.2771876 C48.0823409,10.9604739 49.8958294,9.50007769 49.6217203,7.48358754 C49.4552674,6.25124181 48.4018934,5.70460667 47.2838222,5.90033095 C45.3321404,6.2419909 44.6141567,8.3557715 44.9796701,10.2271575 C45.0436426,10.5485486 45.1579238,10.8136027 45.2721014,11.0732518 C43.0665996,12.8741646 42.1907547,9.46109914 42.0913798,9.05322763 C42.0874462,9.03139965 43.7943138,7.60280992 44.269036,4.19857957 C44.7666351,0.630743272 43.6331401,-0.0188991723 42.4740767,0.00136967193 C40.329235,0.0388930195 39.7496516,4.53868039 40.5282954,8.28893629 C40.4630806,8.30598291 40.1595731,8.474786 39.6719114,8.49370359 C39.3209938,7.38494583 37.8215714,6.41308074 37.429144,6.78758661 C36.4469887,7.72442299 37.6673333,9.55599891 38.5259946,9.69964785 C38.0101767,12.889756 34.7843223,12.0996869 35.3848159,8.10298264 C36.4352915,6.14418074 37.2342243,3.23159979 37.0916834,1.47330354 C37.0411678,0.85079016 36.5828011,0.016753205 35.5461966,0.0581224359 C33.5523841,0.137326843 33.3356225,4.63836152 33.5693606,7.83293926 C33.5577669,7.75425457 33.4467982,8.22106165 32.6297502,8.4531659 C32.4364867,7.37600675 30.7092266,6.29479384 30.3026176,6.81461174 C29.541468,7.78751626 30.8605663,9.5222175 31.485386,9.64320691 C30.9695682,12.8332112 27.7438173,12.043142 28.3443109,8.04643776 C29.3947865,6.0877398 30.1936158,3.17515885 30.0510749,1.4168626 C30.0005593,0.794245282 29.5422961,-0.0397916733 28.5055881,0.00147361473 C26.5117755,0.0807819643 26.295014,4.58181665 26.5287521,7.77639439 C26.5170548,7.69646238 26.4034983,8.17865299 25.5531182,8.40691136 C25.5246515,7.00940053 23.791077,6.36859322 23.374634,6.8145078 C22.6324277,7.60935832 23.5446065,9.24022071 24.3884651,9.64320691 C23.8726472,12.8332112 20.6468964,12.043142 21.2473899,8.04643776 C22.2978655,6.0877398 23.0967983,3.17515885 22.9541539,1.4168626 C22.9037419,0.794245282 22.4453751,-0.0397916733 21.4086671,0.00147361473 C19.4149581,0.0807819643 19.254509,4.8081001 19.4882471,8.0025739 C18.8315446,10.8278429 16.6292517,14.356077 16.9153687,7.28827904 C16.9436284,6.79247193 16.974476,6.60423153 16.7283161,6.41858971 C16.5438514,6.27431711 16.1244065,6.3437509 15.8951196,6.34946775 C15.6164558,6.36069357 15.5465829,6.52440347 15.4849911,6.77189125 C15.3415186,7.41093153 15.3157432,8.03043057 15.2952472,8.87569334 C15.2817901,9.27109172 15.2502179,9.45559018 15.0985677,9.99474143 C14.9471244,10.5337887 14.0830803,11.5190625 13.6100144,11.3543131 C12.9537259,11.1277179 13.1690382,9.26734978 13.2920147,7.98916528 C13.3944951,6.97904924 13.0663508,6.5254429 12.2255977,6.36048569 C11.7333814,6.25747838 11.434325,6.27327768 10.9217162,6.11102299 C10.436953,5.95760343 10.32733,5.03687818 9.29341693,5.3437173 C8.72791161,5.51168885 9.09145814,6.71482666 8.95554225,7.60655187 C8.28734953,11.9930416 6.89703249,12.1135113 6.25202725,9.98268407 C9.15698347,2.8385921 7.09236629,0.0221582301 5.88382252,0.0221582301 C4.62507372,0.0221582301 3.1862079,0.892783048 3.79550029,6.46328511 C3.49923885,6.37649288 3.40814519,6.32971862 3.08383105,6.32971862 C1.24963943,6.32971862 0,7.81859516 0,9.65526428 C0,11.4919334 1.24974295,12.9809139 3.08393456,12.9809139 C4.16670697,12.9809139 4.926925,12.486458 5.50267835,11.721543 C5.8783362,12.2617337 6.33577131,12.9892293 7.17228028,12.9564873 C9.66565876,12.858989 10.390785,7.72327962 10.4763924,7.43681329 C10.7429448,7.47807858 10.9951087,7.55613961 11.2412686,7.5974049 C11.6513971,7.65925086 11.6812096,7.82223316 11.6718932,8.23644518 C11.5632019,11.7293387 12.2051017,12.9523296 13.6611511,12.9523296 C14.4724022,12.9523296 15.1954582,12.1519701 15.6935749,11.5796611 C16.0656097,12.3507087 16.6584431,12.9287346 17.4537529,12.9522257 C19.3809015,13.0003512 20.1187601,9.91605674 20.051475,10.3219533 C19.9986821,10.6404341 20.6767088,12.9348672 22.6606874,12.9431826 C25.1182495,12.9535769 25.5750635,10.2398385 25.6295127,9.78529671 C25.6363447,9.69486648 25.6393467,9.70422133 25.6295127,9.78529671 L25.6276494,9.81284155 C26.4078459,9.66711376 26.8104178,9.24708094 26.8104178,9.24708094 C26.8104178,9.24708094 27.4368938,12.9853834 29.7575049,12.9432866 C32.1673463,12.8994227 32.6217795,10.4463729 32.6814044,9.96802814 C32.6892716,9.85452261 32.6939298,9.86782728 32.6814044,9.96802814 C32.6810784,9.97270451 32.6807678,9.97738196 32.6804728,9.98206041 C33.6072473,9.64351874 33.8510264,9.30372976 33.8510264,9.30372976 C33.8510264,9.30372976 34.348936,12.9677131 36.7981134,12.9997275 C38.9806348,13.0284157 39.7895051,10.7841869 39.7942668,9.84485593 C40.162368,9.84880575 40.8432931,9.62553664 40.8273517,9.61285562 C40.8273517,9.61285562 41.6268022,12.8163724 43.8593215,12.9809139 C44.9075197,13.0581434 45.6938237,12.3886479 46.1420459,12.0832639 C47.1954199,12.9398565 50.7030435,14.0339583 52.9178617,10.2634335 C53.2304786,9.72230738 52.5583523,9.08305921 52.4403446,8.99959315 Z M2.99542879,11.7371344 C1.92528528,11.7371344 1.23908085,10.7435453 1.23908085,9.67220695 C1.23908085,8.60097255 1.86897283,7.60738341 2.93911634,7.60738341 C3.42067057,7.60738341 3.68856875,7.66060212 4.0636055,7.98812585 C4.13161521,8.25723374 4.32436112,8.87798009 4.41814618,9.15987293 C4.54381403,9.53708132 4.69329045,9.85816061 4.84400906,10.2076163 C4.62869676,11.103915 3.92282439,11.7371344 2.99542879,11.7371344 Z M5.60319193,8.01962052 C5.55868025,7.94841971 5.56799665,7.99217962 5.51820568,7.92492863 C5.32204376,7.38910355 4.94400506,6.19313779 4.90021799,4.83470946 C4.85073757,3.29801923 5.10579982,1.49679461 5.85773661,1.49679461 C6.36724003,1.49679461 6.90872975,5.14726543 5.60308841,8.01962052 L5.60319193,8.01962052 Z M20.6710155,6.41848576 C20.5503164,5.50659566 20.5440019,1.4413931 21.5159092,1.55333949 C22.0525337,1.77161935 21.1756537,5.60762805 20.6710155,6.41848576 Z M27.7679364,6.41848576 C27.6472373,5.50659566 27.6409229,1.4413931 28.6128302,1.55333949 C29.1494547,1.77161935 28.2725746,5.60762805 27.7679364,6.41848576 Z M34.808545,6.47513458 C34.6877424,5.56314054 34.6815314,1.49793798 35.6533352,1.60988436 C36.1899597,1.82816422 35.3130797,5.66427687 34.808545,6.47513458 Z M42.5813188,1.31541444 C43.4698961,1.22290535 43.4332516,5.11930482 41.6496791,7.57921491 C41.4196676,6.69008828 41.0669902,1.62069441 42.5813188,1.31531049 L42.5813188,1.31541444 Z M46.316159,9.69964785 C46.0307667,8.2520366 46.7682113,7.30127189 47.5284293,7.19701727 C47.7941537,7.15440072 48.1792315,7.32725759 48.25604,7.65041572 C48.3823289,8.25941654 48.2377177,9.16278333 46.536233,10.3089605 C46.5387174,10.3187311 46.3798211,10.0220784 46.3162625,9.69964785 L46.316159,9.69964785 Z" id="Shape"></path>
            </g>
        </g>
    </g>
</svg>