<?xml version="1.0" encoding="UTF-8"?>
<svg width="63px" height="13px" viewBox="0 0 63 13" version="1.1" xmlns="http://www.w3.org/2000/svg" xmlns:xlink="http://www.w3.org/1999/xlink">
    <!-- Generator: Sketch 49.1 (51147) - http://www.bohemiancoding.com/sketch -->
    <title>Facebook</title>
    <desc>Created with Sketch.</desc>
    <defs></defs>
    <g id="UX-Taha" stroke="none" stroke-width="1" fill="none" fill-rule="evenodd">
        <g id="UX-Taha-Copy" transform="translate(-292.000000, -31.000000)" fill="#FFFFFF" fill-rule="nonzero">
            <path d="M325.250756,37.2940117 C324.717457,37.2940117 324.333028,37.471295 323.943217,37.6519118 L323.943217,41.7388222 C324.316586,41.7748849 324.530623,41.7748849 324.88486,41.7748849 C326.164897,41.7748849 326.340371,41.1806071 326.340371,40.3508606 L326.340371,38.398926 C326.340371,37.7861622 326.139786,37.2940117 325.250756,37.2940117 Z M316.749664,37.0709681 C315.86153,37.0709681 315.658853,37.56524 315.658853,38.1773977 L315.658853,38.5213576 L317.839279,38.5213576 L317.839279,38.1773977 C317.839279,37.56524 317.636602,37.0709681 316.749664,37.0709681 Z M300.281376,41.3248581 C300.281376,41.8091294 300.506772,42.0606595 301.004199,42.0606595 C301.537796,42.0606595 301.85377,41.8842854 302.243281,41.7030625 L302.243281,40.7336107 L301.076541,40.7336107 C300.52411,40.7336107 300.281376,40.8378593 300.281376,41.3248581 Z M333.520174,37.2940117 C332.630546,37.2940117 332.322345,37.7861622 332.322345,38.398926 L332.322345,40.63512 C332.322345,41.249399 332.630546,41.7430648 333.520174,41.7430648 C334.407411,41.7430648 334.718004,41.249399 334.718004,40.63512 L334.718004,38.398926 C334.717705,37.7861622 334.407112,37.2940117 333.520174,37.2940117 Z M295.921718,43.8322803 L293.306642,43.8322803 L293.306642,37.4155341 L292,37.4155341 L292,35.2044931 L293.306941,35.2044931 L293.306941,33.8765352 C293.306941,32.0724882 294.044411,31 296.140538,31 L297.885717,31 L297.885717,33.211647 L296.794905,33.211647 C295.978815,33.211647 295.925007,33.5207564 295.925007,34.0974574 L295.921718,35.2041901 L297.897674,35.2041901 L297.666598,37.415231 L295.921718,37.415231 L295.921718,43.8322803 Z M304.858956,43.848948 L302.679426,43.848948 L302.585262,43.2901268 C301.59011,43.848948 300.701976,43.9395594 300.116065,43.9395594 C298.517664,43.9395594 297.666897,42.8570707 297.666897,41.3600117 C297.666897,39.5938458 298.659657,38.9635052 300.435626,38.9635052 L302.243281,38.9635052 L302.243281,38.5816642 C302.243281,37.6800953 302.141345,37.4155341 300.77372,37.4155341 L298.537692,37.4155341 L298.756213,35.2044931 L301.2003,35.2044931 C304.201002,35.2044931 304.858956,36.1654595 304.858956,38.5995441 L304.858956,43.848948 Z M312.270433,37.5776649 C310.914168,37.3418933 310.524657,37.290072 309.872083,37.290072 C308.699962,37.290072 308.345725,37.5522089 308.345725,38.56136 L308.345725,40.4702617 C308.345725,41.4794128 308.699962,41.7427618 309.872083,41.7427618 C310.524657,41.7427618 310.914168,41.6900314 312.270433,41.4533506 L312.270433,43.6101459 C311.082468,43.880162 310.308527,43.9510753 309.654459,43.9510753 C306.846869,43.9510753 305.730947,42.4543194 305.730947,40.2920692 L305.730947,38.743189 C305.730947,36.5791206 306.846869,35.0796372 309.654459,35.0796372 C310.308527,35.0796372 311.082468,35.1508536 312.270433,35.4220819 L312.270433,37.5776649 Z M320.454057,40.2920692 L315.658554,40.2920692 L315.658554,40.4702617 C315.658554,41.4794128 316.01309,41.7427618 317.184912,41.7427618 C318.238356,41.7427618 318.881364,41.6900314 320.235237,41.4533506 L320.235237,43.6101459 C318.929492,43.880162 318.249118,43.9510753 316.968185,43.9510753 C314.160295,43.9510753 313.043776,42.4543194 313.043776,40.2920692 L313.043776,38.5210545 C313.043776,36.6291235 313.872122,35.0796372 316.749365,35.0796372 C319.626607,35.0796372 320.454057,36.6112437 320.454057,38.5210545 L320.454057,40.2920692 Z M328.95485,40.3329808 C328.95485,42.4228023 328.365651,43.9471357 324.796376,43.9471357 C323.507371,43.9471357 322.751367,43.8322803 321.328739,43.6104489 L321.328739,31.664282 L323.942919,31.2221345 L323.942919,35.4008685 C324.507904,35.1881285 325.239097,35.0799403 325.904525,35.0799403 C328.519004,35.0799403 328.954551,36.2681929 328.954551,38.1777007 L328.954551,40.3329808 L328.95485,40.3329808 Z M337.334874,40.378438 C337.334874,42.1812728 336.600692,43.9298619 333.528843,43.9298619 C330.4555,43.9298619 329.707567,42.1812728 329.707567,40.378438 L329.707567,38.6377282 C329.707567,36.8339842 330.4555,35.0850921 333.528843,35.0850921 C336.600692,35.0850921 337.334874,36.8339842 337.334874,38.6377282 L337.334874,40.378438 Z M345.709218,40.378438 C345.709218,42.1812728 344.974139,43.9298619 341.902888,43.9298619 C338.829545,43.9298619 338.081612,42.1812728 338.081612,40.378438 L338.081612,38.6377282 C338.081612,36.8339842 338.829545,35.0850921 341.902888,35.0850921 C344.974139,35.0850921 345.709218,36.8339842 345.709218,38.6377282 L345.709218,40.378438 Z M354.303279,43.8322803 L351.469681,43.8322803 L349.073125,39.7765839 L349.073125,43.8322803 L346.458049,43.8322803 L346.458049,31.663979 L349.073125,31.2218314 L349.073125,39.0553288 L351.469681,35.2044931 L354.303279,35.2044931 L351.687007,39.4068649 L354.303279,43.8322803 Z M341.89392,37.2940117 C341.005787,37.2940117 340.697586,37.7861622 340.697586,38.398926 L340.697586,40.63512 C340.697586,41.249399 341.005787,41.7430648 341.89392,41.7430648 C342.780858,41.7430648 343.094739,41.249399 343.094739,40.63512 L343.094739,38.398926 C343.094739,37.7861622 342.780858,37.2940117 341.89392,37.2940117 Z" id="Facebook"></path>
        </g>
    </g>
</svg>