<?xml version="1.0" encoding="UTF-8"?>
<svg width="58px" height="14px" viewBox="0 0 58 14" version="1.1" xmlns="http://www.w3.org/2000/svg" xmlns:xlink="http://www.w3.org/1999/xlink">
    <!-- Generator: Sketch 49.1 (51147) - http://www.bohemiancoding.com/sketch -->
    <title>Linkedin</title>
    <desc>Created with Sketch.</desc>
    <defs>
        <polygon id="path-1" points="0.378629032 0 24.6233871 0 24.6233871 13.9766667 0.378629032 13.9766667"></polygon>
    </defs>
    <g id="UX-Taha" stroke="none" stroke-width="1" fill="none" fill-rule="evenodd">
        <g id="UX-Taha-Copy" transform="translate(-203.000000, -30.000000)">
            <g id="Linkedin" transform="translate(203.000000, 30.000000)">
                <polyline id="Fill-3" fill="#FFFFFE" points="0 2 2.10382721 2 2.10382721 9.97846324 6 9.97846324 6 12 0 12 0 2"></polyline>
                <path d="M8.49975771,1 C9.32789533,1 10,1.59319596 10,2.32453344 C10,3.05544323 9.32789533,3.64692846 8.49975771,3.64692846 C7.67258924,3.64692846 7,3.05544323 7,2.32453344 C7,1.59319596 7.67258924,1 8.49975771,1 Z M7.20642869,12 L9.79260216,12 L9.79260216,4.65241058 L7.20642869,4.65241058 L7.20642869,12 Z" id="Fill-4" fill="#FFFFFE"></path>
                <polyline id="Fill-5" fill="#FFFFFE" points="19 2 21.0835938 2 21.0835938 7.97625434 23.4453125 5.21710319 26 5.21710319 23.2660156 8.35492269 25.9429688 12 23.3234375 12 21.1105469 8.64996844 21.0835938 8.64996844 21.0835938 12 19 12 19 2"></polyline>
                <path d="M11,5.17018859 L13.1535551,5.17018859 L13.1535551,6.1034424 L13.1834014,6.1034424 C13.4822844,5.56623495 14.2154096,5 15.3075306,5 C17.5808912,5 18,6.41518973 18,8.2542604 L18,12 L15.7560653,12 L15.7560653,8.67853897 C15.7560653,7.88644626 15.740932,6.86809816 14.5891184,6.86809816 C13.4225919,6.86809816 13.2435143,7.73097023 13.2435143,8.62207453 L13.2435143,12 L11,12 L11,5.17018859" id="Fill-6" fill="#FFFFFE"></path>
                <path d="M32.6772391,10.6815452 C32.001298,11.5193696 30.8919804,12 29.7953045,12 C27.6868898,12 26,10.6275417 26,8.49942139 C26,6.372844 27.6868898,5 29.7953045,5 C31.7642643,5 33,6.372844 33,8.49942139 L33,9.14437648 L28.1084147,9.14437648 C28.2759185,9.92704028 28.8819346,10.4350581 29.6965404,10.4350581 C30.3863085,10.4350581 30.8489192,10.0921364 31.2005192,9.62539263 L32.6772391,10.6815452 Z M30.8919804,7.74568799 C30.9054123,7.05907313 30.3574694,6.48277952 29.5973813,6.48277952 C28.6705796,6.48277952 28.1649077,7.1007329 28.1084147,7.74568799 L30.8919804,7.74568799 Z" id="Fill-7" fill="#FFFFFE"></path>
                <g id="Group-11" transform="translate(33.000000, 0.000000)">
                    <mask id="mask-2" fill="white">
                        <use xlink:href="#path-1"></use>
                    </mask>
                    <g id="Clip-9"></g>
                    <path d="M8.57701613,11.8552222 L6.59596774,11.8552222 L6.59596774,10.9689444 L6.56814516,10.9689444 C6.23669355,11.4538889 5.40524194,12.0208889 4.42983871,12.0208889 C2.36290323,12.0208889 1,10.5823889 1,8.5485 C1,6.6795 2.20604839,4.9645 4.1858871,4.9645 C5.07620968,4.9645 5.90725806,5.199 6.39556452,5.84922222 L6.42379032,5.84922222 L6.42379032,2 L8.57701613,2 L8.57701613,11.8552222 Z M4.87419355,6.79072222 C3.79879032,6.79072222 3.15201613,7.48294444 3.15201613,8.4925 C3.15201613,9.50322222 3.79879032,10.1946667 4.87419355,10.1946667 C5.95120968,10.1946667 6.59596774,9.50322222 6.59596774,8.4925 C6.59596774,7.48294444 5.95120968,6.79072222 4.87419355,6.79072222 Z" id="Fill-8" fill="#FFFFFE" mask="url(#mask-2)"></path>
                    <path d="M22.4774194,11.9295556 L20.325,11.9295556 L20.325,8.68038889 C20.325,7.90572222 20.3108871,6.909 19.2060484,6.909 C18.0858871,6.909 17.9149194,7.75327778 17.9149194,8.62516667 L17.9149194,11.9295556 L15.7645161,11.9295556 L15.7645161,5.24844444 L17.8282258,5.24844444 L17.8282258,6.16194444 L17.8576613,6.16194444 C18.1447581,5.63655556 18.8475806,5.08277778 19.8951613,5.08277778 C22.0745968,5.08277778 22.4774194,6.46605556 22.4774194,8.26544444 L22.4774194,11.9295556 Z M13.3366935,4.33572222 C12.6451613,4.33572222 12.0879032,3.79633333 12.0879032,3.13133333 C12.0879032,2.46672222 12.6451613,1.92733333 13.3366935,1.92733333 C14.0254032,1.92733333 14.5846774,2.46672222 14.5846774,3.13133333 C14.5846774,3.79633333 14.0254032,4.33572222 13.3366935,4.33572222 Z M12.258871,11.9295556 L14.4137097,11.9295556 L14.4137097,5.24844444 L12.258871,5.24844444 L12.258871,11.9295556 Z M23.5495968,0 L11.178629,0 C10.5879032,0 10.1076613,0.451888889 10.1076613,1.00955556 L10.1076613,12.9896667 C10.1076613,13.5473333 10.5879032,14 11.178629,14 L23.5495968,14 C24.1419355,14 24.6233871,13.5473333 24.6233871,12.9896667 L24.6233871,1.00955556 C24.6233871,0.451888889 24.1419355,0 23.5495968,0 Z" id="Fill-10" fill="#FFFFFE" mask="url(#mask-2)"></path>
                </g>
            </g>
        </g>
    </g>
</svg>